<?xml version="1.0" encoding="UTF-8"?>
<!DOCTYPE svg PUBLIC "-//W3C//DTD SVG 1.1//EN" "http://www.w3.org/Graphics/SVG/1.1/DTD/svg11.dtd">
<!-- Creator: CorelDRAW 2021 (64-Bit) -->
<svg xmlns="http://www.w3.org/2000/svg" xml:space="preserve" width="8.5in" height="11in" version="1.1" style="shape-rendering:geometricPrecision; text-rendering:geometricPrecision; image-rendering:optimizeQuality; fill-rule:evenodd; clip-rule:evenodd"
viewBox="0 0 8500 11000"
 xmlns:xlink="http://www.w3.org/1999/xlink"
 xmlns:xodm="http://www.corel.com/coreldraw/odm/2003">
 <defs>
  <style type="text/css">
   <![CDATA[
    .str0 {stroke:#3F3FFF;stroke-width:6.94;stroke-linecap:round;stroke-linejoin:round;stroke-miterlimit:2.61313}
    .fil0 {fill:#3F3FFF;fill-rule:nonzero}
   ]]>
  </style>
 </defs>
 <g id="Layer_x0020_1">
  <metadata id="CorelCorpID_0Corel-Layer"/>
  <g id="django.svg">
   <g>
    <path class="fil0 str0" d="M2720.25 5976.8l118.2 0 0 547.15c-60.63,11.52 -105.16,16.13 -153.52,16.13 -144.31,-0.01 -219.54,-65.25 -219.54,-190.37 0,-120.51 79.83,-198.8 203.41,-198.8 19.19,0 33.77,1.53 51.43,6.13l0 -180.24zm0 275.42c-13.81,-4.6 -25.33,-6.13 -39.92,-6.13 -59.87,0 -94.41,36.85 -94.41,101.32 0,62.95 33.01,97.49 93.65,97.49 13.05,0 23.8,-0.76 40.69,-3.07l0 -189.61z"/>
    <path class="fil0 str0" d="M3026.51 6159.35l0 274.02c0,94.42 -6.91,139.7 -27.63,178.85 -19.19,37.62 -44.53,61.41 -96.72,87.51l-109.77 -52.2c52.2,-24.56 77.53,-46.05 93.65,-79.07 16.89,-33.76 22.27,-72.92 22.27,-175.77l0 -233.35 118.2 0zm-118.2 -181.92l118.2 0 0 121.28 -118.2 0 0 -121.28zm189.61 208.78c52.2,-24.56 102.09,-35.3 156.59,-35.3 60.64,0 100.55,16.11 118.21,47.59 9.97,17.65 13.04,40.68 13.04,89.81l0 240.25c-52.97,7.67 -119.74,13.05 -168.87,13.05 -99.02,0 -143.54,-34.55 -143.54,-111.31 0,-82.91 59.11,-121.28 204.18,-133.57l0 -26.09c0,-21.49 -10.74,-29.16 -40.69,-29.16 -43.75,0 -92.87,12.28 -138.94,36.08l0.01 -91.34zm184.99 188.06c-78.3,7.67 -103.63,19.96 -103.63,50.66 0,23.02 14.59,33.77 46.82,33.77 17.66,0 33.77,-1.53 56.8,-5.37l0 -79.06 0 0zm160.43 -196.5c69.85,-18.42 127.41,-26.86 185.75,-26.86 60.64,0 104.39,13.81 130.5,40.68 24.56,25.33 32.23,52.96 32.23,112.07l0 231.8 -118.21 0 0 -227.2c0,-45.28 -15.35,-62.18 -57.57,-62.18 -16.12,0 -30.7,1.54 -54.5,8.44l0 280.94 -118.2 -0 0 -357.69zm394.44 422.17c41.46,21.5 82.9,31.46 126.65,31.46 77.52,0 110.52,-31.46 110.52,-106.69l0 -2.3c-23.02,11.51 -46.06,16.12 -76.75,16.12 -103.63,0 -169.65,-68.31 -169.65,-176.54 0,-134.33 97.49,-210.32 270.19,-210.32 50.66,0 97.49,5.37 154.29,16.88l-40.48 85.26c-31.47,-6.14 -2.52,-0.82 -26.31,-3.12l0 12.28 1.53 49.89 0.76 64.48c0.77,16.11 0.77,32.24 1.54,48.36l0 32.24c0,101.32 -8.44,148.91 -33.77,188.06 -36.85,57.57 -100.56,85.97 -191.13,85.97 -46.06,0 -85.96,-6.91 -127.42,-23.03l0.01 -109 0 0zm234.89 -353.09l-12.28 0c-23.02,-0.77 -49.89,5.37 -68.31,16.88 -28.39,16.12 -42.99,45.3 -42.99,86.74 0,59.11 29.18,92.88 81.37,92.88 16.12,0 29.17,-3.07 44.51,-7.68l0 -40.68c0,-13.82 -0.76,-29.18 -0.76,-45.29l-0.76 -54.49 -0.77 -39.15 -0.01 -9.22 0 0zm363.89 -97.48c118.2,0 190.37,74.46 190.37,194.97 0,123.59 -75.22,201.11 -194.97,201.11 -118.22,0 -191.14,-74.46 -191.14,-194.2 0.01,-124.36 75.24,-201.88 195.74,-201.88zm-2.31 300.89c45.29,0 72.16,-37.61 72.16,-102.86 0,-64.47 -26.1,-102.85 -71.38,-102.85 -46.83,0 -73.7,37.62 -73.7,102.85 0.01,65.25 26.88,102.86 72.93,102.86z"/>
   </g>
  </g>
 </g>
</svg>
