<svg width="148" height="116" viewBox="0 0 148 116" fill="none" xmlns="http://www.w3.org/2000/svg">
<path d="M20.6907 11.4353C21.6554 12.2319 23.0786 12.1081 23.8708 11.1591L23.8717 11.1581L23.8793 11.1492C23.8896 11.1371 23.908 11.1158 23.9341 11.0861C23.9864 11.0266 24.0698 10.9335 24.1823 10.8133C24.4076 10.5723 24.7477 10.2245 25.1874 9.81947C26.0731 9.0036 27.3304 7.98595 28.8397 7.1371C31.8557 5.44076 35.5794 4.54896 39.509 6.81776C43.5994 9.1793 45.3739 13.4091 47.4443 18.5942L47.5547 18.8707C48.6368 21.5829 49.8262 24.5639 51.6443 27.2278C53.0715 29.319 54.8861 31.2147 57.3403 32.6317C59.7838 34.0424 62.3212 34.6668 64.8349 34.8602C68.0623 35.1085 71.2506 34.6463 74.1506 34.2258L74.4452 34.1832C79.9709 33.3837 84.5212 32.8056 88.6115 35.1671C92.7019 37.5286 94.4764 41.7584 96.5468 46.9436L96.6572 47.22C97.7533 49.9674 98.9595 52.9905 100.818 55.6805C102.234 57.7307 104.029 59.5874 106.443 60.981C108.846 62.3684 111.34 62.9953 113.813 63.1996C117.083 63.4697 120.316 63.001 123.253 62.5752L123.548 62.5325C129.073 61.733 133.624 61.1549 137.714 63.5164C141.674 65.8027 142.939 69.6206 143.144 73.2304C143.246 75.0268 143.074 76.6851 142.873 77.9023C142.773 78.5071 142.667 78.9932 142.588 79.3211C142.548 79.4847 142.516 79.6083 142.495 79.6866C142.484 79.7258 142.476 79.7536 142.471 79.7694L142.468 79.7803L142.468 79.7827L142.467 79.7836L142.467 79.7844C142.113 80.9687 142.794 82.2248 143.99 82.5914C145.186 82.9584 146.446 82.295 146.802 81.1095L144.635 80.4449C146.802 81.1095 146.802 81.1087 146.803 81.1077L146.803 81.1056L146.805 81.1005L146.809 81.0865L146.821 81.0442C146.831 81.0097 146.844 80.9625 146.86 80.9035C146.893 80.7854 146.936 80.6193 146.986 80.4104C147.087 79.993 147.215 79.4019 147.335 78.6789C147.573 77.2403 147.785 75.24 147.659 73.025C147.408 68.6119 145.772 62.9956 139.954 59.6367C134.373 56.4146 128.302 57.2947 123.144 58.0425L122.849 58.0852C117.323 58.8847 112.773 59.4628 108.683 57.1013C104.593 54.7397 102.818 50.51 100.748 45.3248L100.637 45.0484C98.7056 40.207 96.4323 34.5094 90.8515 31.2873C85.2707 28.0653 79.1998 28.9454 74.0413 29.6932L73.7467 29.7359C68.221 30.5354 63.6706 31.1135 59.5803 28.7519C55.49 26.3904 53.7155 22.1606 51.645 16.9755L51.5347 16.699C49.6031 11.8577 47.3298 6.16009 41.749 2.938C35.901 -0.438382 30.3723 1.08753 26.5805 3.22021C24.6858 4.28586 23.1504 5.53554 22.0943 6.50837C21.5631 6.9977 21.1449 7.42457 20.8548 7.73474C20.7096 7.89003 20.5959 8.01664 20.5156 8.10791C20.4755 8.15355 20.4437 8.19041 20.4204 8.21765L20.3918 8.25122L20.3824 8.26241L20.379 8.26657L20.3775 8.26829C20.3769 8.26905 20.3763 8.26977 22.1245 9.71331L20.3763 8.26977C19.5844 9.22079 19.7252 10.638 20.6907 11.4353Z" fill="#5398FF"/>
<path d="M14.3509 27.6481C13.5587 28.5971 12.1355 28.7209 11.1707 27.9243C10.2052 27.127 10.0645 25.7098 10.8564 24.7587L12.6046 26.2023C10.8564 24.7587 10.857 24.758 10.8576 24.7573L10.859 24.7555L10.8625 24.7514L10.8719 24.7402L10.9005 24.7066C10.9237 24.6794 10.9556 24.6425 10.9957 24.5969C11.076 24.5056 11.1897 24.379 11.3349 24.2237C11.625 23.9135 12.0432 23.4867 12.5744 22.9973C13.6305 22.0245 15.1659 20.7748 17.0606 19.7092C20.8524 17.5765 26.381 16.0506 32.2291 19.427C37.8099 22.6491 40.0832 28.3467 42.0148 33.188L42.1251 33.4645C44.1956 38.6496 45.9701 42.8794 50.0604 45.2409C54.1507 47.6025 58.7011 47.0243 64.2268 46.2249L64.5214 46.1822C69.6799 45.4343 75.7508 44.5542 81.3316 47.7763C86.9124 50.9984 89.1857 56.696 91.1173 61.5374L91.2276 61.8138C93.2981 66.9989 95.0726 71.2287 99.1629 73.5903C103.253 75.9518 107.804 75.3737 113.329 74.5742L113.624 74.5315C118.782 73.7837 124.853 72.9036 130.434 76.1257C136.252 79.4845 137.888 85.1008 138.139 89.5139C138.265 91.729 138.053 93.7293 137.815 95.1678C137.695 95.8909 137.567 96.482 137.466 96.8994C137.416 97.1083 137.373 97.2744 137.341 97.3924C137.324 97.4515 137.311 97.4986 137.301 97.5332L137.289 97.5755L137.285 97.5894L137.283 97.5946L137.283 97.5967C137.282 97.5976 137.282 97.5985 135.115 96.9339L137.282 97.5985C136.926 98.784 135.667 99.4474 134.47 99.0804C133.274 98.7137 132.593 97.4577 132.947 96.2734L132.947 96.2726L132.948 96.2716L132.948 96.2693L132.952 96.2584C132.956 96.2426 132.964 96.2148 132.975 96.1756C132.996 96.0972 133.028 95.9737 133.068 95.81C133.147 95.4822 133.253 94.9961 133.353 94.3913C133.555 93.1741 133.726 91.5158 133.624 89.7194C133.419 86.1096 132.154 82.2917 128.194 80.0054C124.104 77.6439 119.553 78.222 114.028 79.0215L113.733 79.0642C110.796 79.49 107.563 79.9587 104.293 79.6885C101.82 79.4842 99.326 78.8574 96.9229 77.47C94.5091 76.0764 92.7141 74.2197 91.2978 72.1695C89.4396 69.4795 88.2334 66.4564 87.1372 63.709L87.0269 63.4325C84.9564 58.2474 83.1819 54.0176 79.0916 51.6561C75.0013 49.2945 70.451 49.8727 64.9253 50.6721L64.6307 50.7148C61.7307 51.1352 58.5424 51.5974 55.315 51.3492C52.8013 51.1558 50.2639 50.5314 47.8204 49.1207C45.3661 47.7037 43.5515 45.808 42.1244 43.7168C40.3063 41.0529 39.1169 38.0719 38.0348 35.3597L37.9244 35.0832C35.8539 29.8981 34.0794 25.6683 29.9891 23.3067C26.0594 21.0379 22.3358 21.9297 19.3198 23.6261C17.8105 24.4749 16.5532 25.4926 15.6674 26.3085C15.2277 26.7135 14.8877 27.0613 14.6624 27.3022C14.5499 27.4225 14.4665 27.5155 14.4142 27.575C14.388 27.6048 14.3697 27.6261 14.3594 27.6382L14.3517 27.6471L14.3509 27.6481Z" fill="#5398FF"/>
<path d="M4.83183 44.136L4.83145 44.1365C4.03929 45.086 2.61577 45.21 1.65083 44.4132C0.685324 43.616 0.544573 42.1987 1.33645 41.2477L3.08466 42.6913C1.33645 41.2477 1.33705 41.247 1.33768 41.2462L1.33912 41.2445L1.3426 41.2404L1.35202 41.2292L1.38054 41.1956C1.40383 41.1684 1.43567 41.1315 1.47582 41.0859C1.55609 40.9946 1.66978 40.868 1.81501 40.7127C2.10511 40.4025 2.52324 39.9756 3.05446 39.4863C4.11057 38.5135 5.64601 37.2638 7.5407 36.1982C11.3325 34.0655 16.8611 32.5396 22.7092 35.9159C28.29 39.138 30.5632 44.8356 32.4949 49.677L32.6052 49.9534C34.6757 55.1386 36.4502 59.3684 40.5405 61.7299C44.6308 64.0914 49.1812 63.5133 54.7069 62.7138L55.0015 62.6712C60.16 61.9233 66.2309 61.0432 71.8117 64.2653C77.3925 67.4874 79.6658 73.185 81.5974 78.0263L81.7077 78.3028C83.7782 83.4879 85.5527 87.7177 89.643 90.0792C93.7333 92.4408 98.2837 91.8627 103.809 91.0632L104.104 91.0205C109.262 90.2727 115.333 89.3925 120.914 92.6146C126.732 95.9735 128.368 101.59 128.619 106.003C128.745 108.218 128.533 110.218 128.295 111.657C128.175 112.38 128.047 112.971 127.946 113.388C127.896 113.597 127.853 113.763 127.821 113.881C127.805 113.94 127.791 113.988 127.781 114.022L127.769 114.064L127.765 114.078L127.763 114.084L127.763 114.086C127.763 114.087 127.762 114.087 125.595 113.423L127.762 114.087C127.406 115.273 126.147 115.936 124.95 115.569C123.755 115.203 123.074 113.947 123.427 112.762L123.428 112.762L123.428 112.761L123.429 112.758L123.432 112.747C123.434 112.74 123.436 112.731 123.44 112.719C123.444 112.704 123.449 112.686 123.455 112.665C123.476 112.586 123.508 112.463 123.548 112.299C123.627 111.971 123.733 111.485 123.833 110.88C124.035 109.663 124.206 108.005 124.104 106.208C123.899 102.599 122.634 98.7807 118.674 96.4944C114.584 94.1328 110.034 94.711 104.508 95.5105L104.213 95.5531C101.276 95.979 98.0428 96.4477 94.7727 96.1775C92.3 95.9732 89.8061 95.3464 87.403 93.959C84.9892 92.5654 83.1942 90.7087 81.7779 88.6584C79.9197 85.9685 78.7135 82.9453 77.6173 80.198L77.507 79.9215C75.4365 74.7364 73.662 70.5066 69.5717 68.1451C65.4814 65.7835 60.931 66.3616 55.4053 67.1611L55.1108 67.2038C52.2108 67.6242 49.0225 68.0864 45.7951 67.8381C43.2814 67.6448 40.744 67.0204 38.3005 65.6097C35.8462 64.1927 34.0316 62.2969 32.6044 60.2058C30.7864 57.5419 29.597 54.5609 28.5149 51.8487L28.4045 51.5722C26.334 46.387 24.5595 42.1573 20.4692 39.7957C16.5395 37.5269 12.8159 38.4187 9.79984 40.115C8.29062 40.9639 7.03325 41.9816 6.14753 42.7974C5.70783 43.2025 5.36779 43.5503 5.14245 43.7912C5.02997 43.9115 4.94662 44.0045 4.89428 44.064C4.86812 44.0938 4.84977 44.1151 4.83944 44.1271L4.83183 44.136Z" fill="#5398FF"/>
</svg>
