<svg width="113" height="113" viewBox="0 0 113 113" fill="none" xmlns="http://www.w3.org/2000/svg">
<path d="M59.0768 0H53.627V112.704H59.0768V0Z" fill="#F2C94C"/>
<path d="M112.704 53.627H0V59.0768H112.704V53.627Z" fill="#F2C94C"/>
<path d="M18.4222 14.5751L14.5686 18.4287L94.2615 98.1216L98.1151 94.268L18.4222 14.5751Z" fill="#F2C94C"/>
<path d="M94.2615 14.5742L14.5686 94.2671L18.4222 98.1207L98.1151 18.4278L94.2615 14.5742Z" fill="#F2C94C"/>
<path d="M5.20835 32.5852L3.1521 37.6323L107.527 80.1555L109.583 75.1083L5.20835 32.5852Z" fill="#F2C94C"/>
<path d="M75.1076 3.15961L32.5845 107.535L37.6316 109.591L80.1548 5.21586L75.1076 3.15961Z" fill="#F2C94C"/>
<path d="M107.651 32.7748L3.09546 74.8584L5.13045 79.9143L109.686 37.8306L107.651 32.7748Z" fill="#F2C94C"/>
<path d="M37.8076 3.09739L32.7517 5.13184L74.824 109.687L79.8799 107.653L37.8076 3.09739Z" fill="#F2C94C"/>
</svg>
