<?xml version="1.0" encoding="UTF-8"?>
<!DOCTYPE svg PUBLIC "-//W3C//DTD SVG 1.1//EN" "http://www.w3.org/Graphics/SVG/1.1/DTD/svg11.dtd">
<!-- Creator: CorelDRAW 2021 (64-Bit) -->
<svg xmlns="http://www.w3.org/2000/svg" xml:space="preserve" width="8.5in" height="11in" version="1.1" style="shape-rendering:geometricPrecision; text-rendering:geometricPrecision; image-rendering:optimizeQuality; fill-rule:evenodd; clip-rule:evenodd"
viewBox="0 0 8500 11000"
 xmlns:xlink="http://www.w3.org/1999/xlink"
 xmlns:xodm="http://www.corel.com/coreldraw/odm/2003">
 <defs>
  <style type="text/css">
   <![CDATA[
    .fil0 {fill:#3F3FFF}
    .fil1 {fill:#3F3FFF;fill-rule:nonzero}
   ]]>
  </style>
 </defs>
 <g id="Layer_x0020_1">
  <metadata id="CorelCorpID_0Corel-Layer"/>
  <g id="github.svg">
   <g>
    <path class="fil0" d="M4118.33 4015.11c-619.93,0 -1122.67,502.61 -1122.67,1122.67 0,496.01 321.67,916.84 767.75,1065.28 56.1,10.4 76.71,-24.35 76.71,-54.02 0,-26.76 -1.06,-115.21 -1.53,-208.99 -312.35,67.9 -378.24,-132.46 -378.24,-132.46 -51.06,-129.78 -124.66,-164.29 -124.66,-164.29 -101.85,-69.67 7.65,-68.24 7.65,-68.24 112.76,7.92 172.13,115.71 172.13,115.71 100.11,171.63 262.64,121.99 326.68,93.31 10.11,-72.57 39.19,-122.12 71.3,-150.15 -249.37,-28.37 -511.5,-124.65 -511.5,-554.83 0,-122.57 43.86,-222.71 115.69,-301.35 -11.66,-28.29 -50.08,-142.49 10.87,-297.13 0,0 94.26,-30.13 308.74,115.13 89.59,-24.89 185.64,-37.37 281.03,-37.79 95.42,0.45 191.52,12.93 281.24,37.79 214.27,-145.24 308.42,-115.11 308.42,-115.11 61.11,154.63 22.69,268.81 11.03,297.13 71.99,78.58 115.53,178.75 115.53,301.35 0,431.18 -262.64,526.12 -512.64,553.88 40.27,34.83 76.16,103.18 76.16,207.94 0,150.2 -1.27,271.08 -1.27,308.05 0,29.82 20.21,64.86 77.11,53.83 445.85,-148.62 767.09,-569.29 767.09,-1065.15 0.05,-619.93 -502.59,-1122.56 -1122.62,-1122.56z"/>
    <path class="fil1" d="M3420.89 5626.99c-2.5,5.59 -11.29,7.26 -19.26,3.43 -8.18,-3.69 -12.72,-11.27 -10.08,-16.89 2.38,-5.7 11.19,-7.31 19.34,-3.48 8.18,3.69 12.83,11.35 10.03,16.94l-0.03 0zm-13.83 -10.24m59.3 61.01c-5.36,4.93 -15.83,2.64 -22.96,-5.23 -7.34,-7.84 -8.71,-18.31 -3.28,-23.33 5.49,-4.96 15.65,-2.64 22.96,5.2 7.39,7.91 8.84,18.28 3.25,23.33l0.03 0.03zm-10.71 -11.53m54.96 76.13c-6.86,4.8 -18.13,0.32 -25.07,-9.68 -6.91,-9.95 -6.91,-21.91 0.13,-26.73 6.97,-4.8 18.05,-0.48 25.07,9.42 6.91,10.16 6.91,22.17 -0.13,27.02l0 -0.03zm0 0m60.64 62.49c-6.15,6.78 -19.26,4.96 -28.84,-4.3 -9.81,-9.05 -12.53,-21.9 -6.39,-28.68 6.26,-6.78 19.42,-4.88 29.08,4.3 9.76,9.02 12.72,21.9 6.15,28.66l0 0.03zm0 0m83.7 36.26c-2.74,8.81 -15.36,12.8 -28.08,9.08 -12.72,-3.85 -21,-14.15 -18.47,-23.01 2.64,-8.87 15.36,-13.01 28.16,-9.02 12.67,3.8 20.98,13.98 18.37,22.96l0.03 0zm0 0m91.83 6.73c0.34,9.24 -10.45,16.94 -23.8,17.1 -13.41,0.32 -24.28,-7.18 -24.44,-16.31 0,-9.34 10.56,-16.94 23.96,-17.15 13.35,-0.26 24.28,7.18 24.28,16.36zm0 0m85.5 -14.54c1.58,9.02 -7.65,18.31 -20.93,20.77 -13.04,2.43 -25.07,-3.17 -26.76,-12.14 -1.58,-9.24 7.84,-18.47 20.85,-20.9 13.28,-2.32 25.15,3.11 26.84,12.3l0 -0.02zm0 0z"/>
   </g>
   <path class="fil1" d="M3085.37 6833.07l-282.35 0c-7.28,-0 -13.19,5.91 -13.19,13.19l0 138.06c0,7.29 5.91,13.2 13.2,13.2l110.11 0 0 171.52c0,0 -24.73,8.44 -93.15,8.44 -80.64,0 -193.34,-29.45 -193.34,-277.28 0,-247.86 117.37,-280.5 227.57,-280.5 95.37,0 136.43,16.78 162.6,24.88 8.18,2.48 15.83,-5.7 15.83,-12.98l31.48 -133.39c0,-0.11 0,-0.21 0,-0.32 0,-3.94 -1.89,-7.65 -5.07,-9.98 -10.63,-7.6 -75.39,-43.8 -239.02,-43.8 -188.52,0 -381.89,80.17 -381.89,465.74 0,385.53 221.39,442.97 407.96,442.97 154.48,0 248.18,-66.02 248.18,-66.02 3.85,-2.11 4.28,-7.52 4.28,-10.03l0 -430.54c0,-7.28 -5.91,-13.19 -13.19,-13.19l-0 0.03zm1442.12 -356.03l-159.01 0c-7.27,0.03 -13.14,5.93 -13.14,13.19 0,0.03 0,0.06 0,0.08l0.05 307.26 -247.83 0 0 -307.26c0,-0.03 0,-0.06 0,-0.08 0,-7.26 -5.86,-13.15 -13.12,-13.19l-158.99 0c-7.26,0.03 -13.14,5.93 -13.14,13.19 0,0.03 0,0.06 0,0.08l0 832.01c0,7.31 5.91,13.28 13.14,13.28l158.98 0c7.26,-0.04 13.12,-5.94 13.12,-13.19 0,-0.04 0,-0.07 0,-0.11l0 -355.87 247.83 0 -0.42 355.87c0,7.34 5.91,13.3 13.19,13.3l159.33 0c7.26,-0.04 13.11,-5.94 13.11,-13.19 0,-0.04 0,-0.07 0,-0.11l0 -832.01c0,-7.34 -5.8,-13.25 -13.11,-13.25l0 0zm-1244.61 18.92c-56.57,0 -102.49,46.26 -102.49,103.52 0,57.18 45.91,103.57 102.49,103.57 56.63,0 102.52,-46.39 102.52,-103.57 0,-57.26 -45.92,-103.52 -102.52,-103.52zm78 253.54l-158.48 0c-7.28,0 -13.78,7.49 -13.78,14.78l0 550.24c0,16.18 10.08,20.98 23.11,20.98l142.76 -0c15.7,0 19.53,-7.7 19.53,-21.24l0 -167.46 0 -384.02c0,-0.02 0,-0.04 0,-0.06 0,-7.26 -5.88,-13.17 -13.14,-13.19l-0 -0.02zm1783.98 1.24l-157.8 0c-7.24,0.06 -13.09,5.94 -13.09,13.19 0,0.03 0,0.07 0,0.11l0 407.96c0,0 -40.11,29.29 -96.98,29.29 -56.87,0 -71.96,-25.78 -71.96,-81.49l0 -355.76c0,-0.04 0,-0.07 0,-0.11 0,-7.26 -5.86,-13.15 -13.12,-13.2l-160.12 0c-7.28,0.06 -13.14,5.97 -13.14,13.24 0,0.02 0,0.04 0,0.06l0 382.68c0,165.45 92.22,205.93 219.07,205.93 104.07,0 187.99,-57.52 187.99,-57.52 0,0 3.96,30.35 5.81,33.91 1.85,3.59 6.52,7.2 11.61,7.2l101.85 -0.45c7.3,-0.03 13.19,-5.95 13.19,-13.25 0,-0.02 0,-0.04 0,-0.05l-0.08 -558.53c-0.03,-7.28 -5.91,-13.19 -13.19,-13.24l-0.05 0.03zm431.23 -18.68c-89.61,0 -150.57,39.98 -150.57,39.98l0 -281.74c0,-0.03 0,-0.06 0,-0.08 0,-7.26 -5.86,-13.15 -13.12,-13.2l-159.41 0c0,-0 0,-0 0,-0 -7.29,0 -13.2,5.91 -13.2,13.2 0,0.02 0,0.05 0,0.08l0 832.01c0,0.02 0,0.05 0,0.08 0,7.28 5.91,13.19 13.2,13.19 0,0 0,0 0,0l110.61 0c5.02,0 8.76,-2.56 11.53,-7.07 2.72,-4.48 6.7,-38.37 6.7,-38.37 0,0 65.18,61.75 188.62,61.75 144.87,0 227.99,-73.46 227.99,-329.9 0,-256.44 -132.73,-289.95 -222.4,-289.95l0.03 0.03zm-398.56 1059c-54.7,-1.67 -91.83,-26.5 -91.83,-26.5l0 -263.48c0,0 36.63,-22.43 81.54,-26.5 56.81,-5.09 111.57,12.09 111.57,147.61 0,142.94 -24.67,171.15 -101.25,168.83l-0.03 0.03zm-1344.33 -593.36c-6.94,0 -24.72,2.82 -43.01,2.82 -58.58,0 -78.45,-27.23 -78.45,-62.48l0 -233.96 119.28 0c0,0 0,0 0,0 7.29,0 13.2,-5.91 13.2,-13.2 0,-0.03 0,-0.07 0,-0.11l0 -128.14c0,-0.01 0,-0.04 0,-0.05 0,-7.29 -5.91,-13.19 -13.2,-13.19 0,0 0,0 0,0l-119.28 0 -0.19 -157.54c0,-5.99 -3.06,-8.97 -9.97,-8.97l-162.55 0c-6.28,0 -9.69,2.8 -9.69,8.84l0 162.81c0,0 -81.46,19.66 -86.95,21.24 -5.63,1.64 -9.5,6.8 -9.5,12.66l0 102.31c0,0.03 0,0.06 0,0.08 0,7.26 5.86,13.15 13.12,13.2l83.33 0 0 246.15c0,182.87 128.24,200.81 214.8,200.81 39.5,0 86.81,-12.67 94.63,-15.57 4.75,-1.77 7.47,-6.65 7.47,-11.95l0.11 -112.55c-0.11,-7.24 -5.94,-13.1 -13.19,-13.24l0.05 0.03z"/>
  </g>
 </g>
</svg>
