<?xml version="1.0" encoding="UTF-8"?>
<!DOCTYPE svg PUBLIC "-//W3C//DTD SVG 1.1//EN" "http://www.w3.org/Graphics/SVG/1.1/DTD/svg11.dtd">
<!-- Creator: CorelDRAW 2021 (64-Bit) -->
<svg xmlns="http://www.w3.org/2000/svg" xml:space="preserve" width="8.5in" height="11in" version="1.1" style="shape-rendering:geometricPrecision; text-rendering:geometricPrecision; image-rendering:optimizeQuality; fill-rule:evenodd; clip-rule:evenodd"
viewBox="0 0 8500 11000"
 xmlns:xlink="http://www.w3.org/1999/xlink"
 xmlns:xodm="http://www.corel.com/coreldraw/odm/2003">
 <defs>
  <style type="text/css">
   <![CDATA[
    .str0 {stroke:#3F3FFF;stroke-width:6.94;stroke-linecap:round;stroke-linejoin:round;stroke-miterlimit:2.61313}
    .fil0 {fill:#3F3FFF;fill-rule:nonzero}
   ]]>
  </style>
 </defs>
 <g id="Layer_x0020_1">
  <metadata id="CorelCorpID_0Corel-Layer"/>
  <path id="html5.svg" class="fil0 str0" d="M4009.33 5718.44l88.44 983.32 396.84 105.88 397.95 -103.88 88.54 -985.32 -971.76 0zm787.81 223.86l-5.54 63.8 -2.44 29.47 -465.52 0 11.12 131.23 443.33 0 -2.96 24.4 -28.6 316.14 -2.1 18.48 -249.22 67.08 0 -0.06 -0.3 0.13 -249.08 -64.69 -16.91 -186.51 122.13 -0 8.65 92.52 135.44 34.33 0.07 -2.56 0 0.13 135.73 -28.97 14.17 -150.13 -421.62 0 -29.9 -337.21 -2.92 -34.6 609.38 0 -2.91 27.02zm-696.1 -501.33l61.48 0 0 60.76 56.25 0 0 -60.76 61.49 0 0 183.96 -61.49 0 0 -61.6 -56.24 0 0 61.6 -61.49 0 0 -183.96zm260.07 61.01l-54.13 0 0 -61.01 169.78 0 0 61.01 -54.15 0 0 122.95 -61.49 0 0 -122.95zm142.59 -61.01l64.11 0 39.44 64.64 39.4 -64.64 64.14 0 0 183.96 -61.25 0 0 -91.18 -42.29 65.41 -1.07 0 -42.32 -65.41 0 91.18 -60.17 0 0 -183.96 0.01 0zm237.7 0l61.5 0 0 123.16 86.47 0 0 60.81 -147.97 0 0 -183.97z"/>
 </g>
</svg>
