<?xml version="1.0" encoding="UTF-8"?>
<!DOCTYPE svg PUBLIC "-//W3C//DTD SVG 1.1//EN" "http://www.w3.org/Graphics/SVG/1.1/DTD/svg11.dtd">
<!-- Creator: CorelDRAW 2021 (64-Bit) -->
<svg xmlns="http://www.w3.org/2000/svg" xml:space="preserve" width="8.5in" height="11in" version="1.1" style="shape-rendering:geometricPrecision; text-rendering:geometricPrecision; image-rendering:optimizeQuality; fill-rule:evenodd; clip-rule:evenodd"
viewBox="0 0 8500 11000"
 xmlns:xlink="http://www.w3.org/1999/xlink"
 xmlns:xodm="http://www.corel.com/coreldraw/odm/2003">
 <defs>
  <style type="text/css">
   <![CDATA[
    .str0 {stroke:#3F3FFF;stroke-width:6.94;stroke-linecap:round;stroke-linejoin:round;stroke-miterlimit:2.61313}
    .fil1 {fill:#3F3FFF;fill-rule:nonzero}
    .fil0 {fill:white;fill-rule:nonzero}
   ]]>
  </style>
 </defs>
 <g id="Layer_x0020_1">
  <metadata id="CorelCorpID_0Corel-Layer"/>
  <polygon class="fil0" points="4354.23,5280.77 3485.63,5280.77 3425.14,5934.04 3426.39,5929.98 4164.3,5929.98 4140.27,6206.39 3904.82,6274.11 3665.91,6205.3 3651.6,6038 3434.72,6038 3465.67,6372.28 3904.82,6496.95 4344.18,6372.28 4404.68,5716.12 3621.53,5716.13 3631.58,5497.51 4174.94,5497.51 4183.07,5622.78 4401.78,5622.76 " data-name="Path 277"/>
  <g id="react.svg">
   <g>
    <circle class="fil1 str0" cx="4206.89" cy="5108.38" r="67.75"/>
    <path class="fil1 str0" d="M4206.89 5357.53c53.18,51.72 105.63,82.32 147.89,82.32 13.84,0 26.96,-2.91 37.89,-9.47 37.88,-21.86 51.72,-76.5 38.61,-154.44 -2.19,-13.84 -5.1,-27.69 -8.74,-42.25 14.57,-4.37 27.69,-8.74 40.8,-13.11 73.58,-28.41 114.38,-67.75 114.38,-110.73 0,-43.71 -40.8,-83.05 -114.38,-110.74 -13.11,-5.1 -26.22,-9.47 -40.8,-13.11 3.64,-14.57 6.56,-28.41 8.74,-42.26 12.38,-79.41 -1.46,-134.78 -39.34,-156.63 -10.93,-6.56 -24.04,-9.47 -37.88,-9.47 -41.52,0 -94.7,30.59 -147.89,82.32 -52.45,-51.72 -104.91,-82.32 -147.16,-82.32 -13.84,0 -26.96,2.91 -37.89,9.47 -37.88,21.85 -51.72,76.49 -38.61,154.44 2.19,13.84 5.1,27.68 8.74,42.25 -14.57,4.37 -27.69,8.74 -40.8,13.11 -73.58,28.41 -114.38,67.75 -114.38,110.73 0,43.71 40.8,83.05 114.38,110.74 13.11,5.1 26.22,9.47 40.8,13.11 -3.64,14.57 -6.56,28.41 -8.74,42.26 -12.38,77.95 1.46,133.31 38.61,154.44 10.93,6.56 24.04,9.47 37.89,9.47 42.25,1.46 94.7,-29.14 147.89,-80.14l0 0zm-40.8 -98.35c13.11,0.73 26.95,0.73 40.8,0.73 13.84,0 27.69,0 40.8,-0.73 -13.11,17.48 -26.95,33.51 -40.8,48.81 -13.84,-15.3 -27.69,-31.33 -40.8,-48.81zm-90.33 -75.04c7.28,12.38 13.84,24.04 21.85,35.7 -22.58,-2.91 -43.71,-6.56 -64.11,-10.93 6.56,-19.67 13.84,-40.07 22.59,-60.46 5.83,11.65 12.38,24.04 19.67,35.7l0 0zm-42.26 -175.57c20.4,-4.37 41.53,-8.02 64.11,-10.93 -7.29,11.66 -14.57,23.31 -21.86,35.7 -7.28,12.39 -13.84,24.04 -19.67,36.43 -9.47,-21.13 -16.76,-41.52 -22.58,-61.19zm40.07 99.8c9.47,-19.67 19.67,-39.34 31.33,-59.01 10.93,-18.94 23.31,-37.88 35.7,-56.82 21.85,-1.46 43.71,-2.19 66.3,-2.19 23.31,0 45.17,0.73 66.3,2.19 13.11,18.94 24.77,37.88 35.7,56.82 11.65,19.67 21.85,39.34 31.32,59.01 -9.47,19.67 -19.67,39.34 -31.32,59.01 -10.93,18.94 -23.31,37.88 -35.7,56.82 -21.86,1.46 -43.71,2.19 -66.3,2.19 -23.31,0 -45.17,-0.73 -66.3,-2.19 -13.11,-18.94 -24.77,-37.88 -35.7,-56.82 -11.66,-19.67 -21.85,-39.34 -31.33,-59.01zm284.85 -39.34l-19.67 -36.43c-7.29,-12.39 -13.84,-24.04 -21.86,-35.7 22.59,2.91 43.71,6.56 64.11,10.93 -6.56,20.4 -13.84,40.8 -22.58,61.19zm0 78.68c8.74,20.4 16.03,40.8 22.58,60.46 -20.4,4.37 -41.52,8.02 -64.11,10.93 7.29,-11.66 14.57,-23.31 21.86,-35.7 6.56,-10.93 13.11,-23.31 19.67,-35.7l0 0zm16.76 252.79c-5.83,3.64 -13.11,5.1 -21.13,5.1 -35.7,0 -80.13,-29.14 -123.85,-72.85 21.13,-22.58 41.53,-48.08 61.93,-76.49 34.24,-2.91 67.02,-8.02 97.62,-15.3 3.65,13.11 5.83,26.23 8.02,39.34 10.2,61.93 2.19,106.36 -22.58,120.2l0 0zm37.88 -383.93c81.59,23.31 130.4,59.01 130.4,91.8 0,28.41 -33.51,56.82 -92.52,79.41 -11.66,4.37 -24.77,8.74 -37.88,12.39 -9.47,-29.87 -21.13,-60.47 -35.7,-91.8 14.57,-31.32 26.95,-61.92 35.7,-91.79l0 0zm-58.28 -205.44c8.02,0 14.57,1.46 21.13,5.1 24.04,13.84 32.78,57.55 22.58,120.2 -2.19,12.38 -5.1,25.5 -8.02,39.34 -30.59,-6.56 -63.38,-11.66 -97.62,-15.3 -19.67,-28.41 -40.8,-53.91 -61.93,-76.49 43.71,-42.98 88.15,-72.85 123.85,-72.85l0 0zm-107.09 146.43c-13.11,-0.73 -26.95,-0.73 -40.8,-0.73 -13.84,0 -27.69,0 -40.8,0.73 13.11,-17.48 26.95,-33.51 40.8,-48.81 13.84,15.3 27.69,32.06 40.8,48.81zm-209.08 -141.33c5.83,-3.64 13.11,-5.1 21.13,-5.1 35.7,0 80.13,29.14 123.85,72.85 -21.13,22.58 -41.53,48.08 -61.93,76.49 -34.24,2.91 -67.02,8.01 -97.62,15.3 -3.65,-13.11 -5.83,-26.23 -8.02,-39.34 -10.2,-61.93 -2.19,-105.63 22.58,-120.2l0 0zm-37.88 383.93c-81.59,-23.31 -130.4,-59.01 -130.4,-91.8 0,-28.41 33.51,-56.82 92.52,-79.41 11.66,-4.37 24.77,-8.74 37.88,-12.39 9.47,29.87 21.13,60.47 35.7,91.8 -14.57,31.32 -26.95,62.65 -35.7,91.79l0 0zm15.3 80.13c2.19,-12.38 5.1,-25.5 8.02,-39.34 30.59,6.56 63.38,11.66 97.62,15.3 19.67,28.41 40.8,53.91 61.93,76.49 -43.71,42.98 -88.15,72.85 -123.85,72.85 -8.02,0 -14.57,-1.46 -21.13,-5.1 -24.77,-13.84 -32.78,-58.28 -22.58,-120.2l0 0zm-30.6 300.15c16.03,-19.67 16.76,-41.52 8.02,-63.38 -8.74,-21.86 -26.96,-32.06 -49.54,-32.78 -26.96,-0.73 -54.64,0 -81.59,0l-5.1 0 0 188.69 21.85 0 0 -71.4 34.24 0c4.37,0 8.02,1.46 10.2,5.1l43.71 67.75c0.73,1.46 2.91,3.64 4.37,3.64l28.41 0c-17.48,-26.96 -34.24,-52.45 -51.72,-78.68 15.3,-2.19 28.41,-7.28 37.15,-18.94l0 0zm-106.36 -1.46l0 -72.12 8.02 0c16.76,0 34.24,-0.73 51,0.73 19.67,0.73 33.51,16.03 33.51,35.7 0,19.67 -16.03,34.97 -35.7,35.7 -17.48,0.73 -34.97,0 -56.83,0l0 0zm281.93 9.47c-11.65,-51 -58.28,-64.11 -93.98,-48.08 -27.68,12.39 -40.07,36.43 -40.8,66.3 -0.73,22.58 5.83,42.98 23.31,58.28 19.67,17.48 43.71,19.67 68.48,15.3 13.84,-2.91 26.23,-9.47 35.7,-19.67 -3.64,-5.1 -7.28,-10.2 -10.93,-14.57 -20.4,17.48 -42.98,23.31 -67.75,11.66 -16.03,-8.02 -24.04,-27.69 -25.5,-42.26l112.92 0 0 -9.47c0.73,-6.56 0,-12.39 -1.46,-17.48l0 0zm-110 11.65c-2.19,-21.85 19.67,-45.17 43.71,-45.17 27.68,-0.73 45.17,16.03 45.89,45.17l-89.61 0zm223.65 -63.38c-10.93,-2.19 -22.58,-2.91 -33.51,-2.19 -17.48,1.46 -32.78,9.47 -45.17,22.58 3.65,5.1 6.56,10.2 10.93,16.03 1.46,-1.46 2.91,-2.91 4.37,-3.64 11.66,-10.93 25.5,-16.76 42.26,-15.3 13.11,0.73 25.5,5.1 29.14,18.21 2.92,10.2 2.19,21.13 2.92,32.06 -2.19,0 -2.92,-0.73 -3.65,-1.46 -17.48,-14.57 -37.15,-17.48 -58.28,-12.39 -19.67,5.1 -32.06,20.4 -33.51,40.07 -1.46,22.59 8.74,39.34 28.41,47.35 12.38,5.1 26.22,5.1 39.34,2.19 10.2,-2.19 14.57,-8.01 29.14,-16.03l0 9.47 20.4 0c0,-29.14 0.73,-64.84 0,-98.35 0,-21.13 -12.39,-34.24 -32.78,-38.61zm10.2 91.79c-0.73,2.19 0,4.37 0,6.56 0,15.3 -3.64,20.4 -18.21,26.23 -10.2,3.64 -21.13,5.1 -32.05,1.46 -12.39,-3.64 -21.13,-14.57 -21.13,-26.96 -0.73,-12.38 7.29,-24.77 19.67,-28.41 16.76,-5.83 32.06,-2.19 45.9,8.01 4.37,3.64 7.28,7.29 5.83,13.11l0 0zm113.65 -72.12c18.94,-5.83 36.43,-2.19 49.54,13.84l2.19 1.46c5.1,-4.37 9.47,-8.74 15.3,-13.84 -2.19,-2.19 -2.91,-3.64 -4.37,-5.83 -21.13,-22.59 -62.65,-25.5 -88.15,-7.29 -35.7,26.23 -34.97,77.22 -17.48,104.18 16.76,25.5 40.8,34.24 69.21,30.6 16.76,-2.19 30.6,-10.2 41.53,-24.04 -5.1,-4.37 -10.2,-8.74 -15.3,-13.84 -1.46,1.46 -2.19,2.19 -2.91,3.64 -19.67,21.85 -52.45,19.67 -69.94,-3.64 -10.2,-13.84 -12.39,-29.87 -9.47,-45.9 1.46,-18.21 10.93,-32.78 29.87,-39.34l0 0zm151.53 99.08c-1.46,0.73 -2.19,1.46 -2.19,1.46 -5.83,4.37 -11.65,5.1 -18.21,2.91 -6.56,-2.91 -7.28,-8.74 -8.01,-14.57l0 -83.05c0,-1.46 0,1.46 0.73,-5.83l27.69 0 0 -21.85 -29.14 0 0 -36.43 -21.85 0 0 39.34 -18.94 0c-1.46,0 -3.65,1.46 -3.65,2.91 -0.73,5.1 0,8.74 0,16.03l23.31 0 0 93.25c0,11.66 2.91,21.85 13.11,27.69 10.93,6.56 32.06,5.1 41.53,-2.91 1.46,-0.73 2.19,-3.65 2.19,-4.37 -2.19,-4.37 -4.37,-9.47 -6.56,-14.57z"/>
   </g>
  </g>
 </g>
</svg>
